{"title":"Bad.Neighbours.2014.AVI.BRRip.DivX.NLsub.{Th3Sp3cialist}","uid":10899597,"size":1115959723,"categoryP":"video","categoryS":"hd___movies","magnet":"?xt=urn:btih:2feea3f35a7c0879c5edfc1e80e0d3fe80dc1274&amp;dn=Bad.Neighbours.2014.AVI.BRRip.DivX.NLsub.%7BTh3Sp3cialist%7D&amp;tr=udp%3A%2F%2Ftracker.openbittorrent.com%3A80&amp;tr=udp%3A%2F%2Fopen.demonii.com%3A1337&amp;tr=udp%3A%2F%2Ftracker.coppersurfer.tk%3A6969&amp;tr=udp%3A%2F%2Fexodus.desync.com%3A6969","seeders":9,"leechers":1,"uploader":"HOLLANDmovies","files":-1,"time":1409180124,"description":"Bad Neighbours (I) (2014) \n&quot;Neighbors&quot; (original title)\n12 97 min  -  Comedy\n\nA couple with a newborn baby face unexpected difficulties after they are forced to live next to a fraternity house.\n\nDirector: Nicholas Stoller\nWriters: Andrew J. Cohen, Brendan O'Brien\nStars: Seth Rogen, Rose Byrne, Zac Efron \n &lt;a href=&quot;\nhttp://bayimg.com/jAApKAaga&quot; rel=&quot;nofollow&quot; target=&quot;_NEW&quot;&gt;\nhttp://bayimg.com/jAApKAaga&lt;/a&gt; &lt;a href=&quot;\nhttp://bayimg.com/JaAPlAagA&quot; rel=&quot;nofollow&quot; target=&quot;_NEW&quot;&gt;\nhttp://bayimg.com/JaAPlAagA&lt;/a&gt; &lt;a href=&quot;\nhttp://bayimg.com/JaapnaaGA&quot; rel=&quot;nofollow&quot; target=&quot;_NEW&quot;&gt;\nhttp://bayimg.com/JaapnaaGA&lt;/a&gt;\n\nGeneral\nComplete name                  : Bad.Neighbours.2014.AVI.BRRip.DivX.NLsub.{Th3Sp3cialist}.avi\nFormat                         : AVI\nFormat/Info                    : Audio Video Interleave\nFormat profile                 : OpenDML\nFile size                      : 1.02 GiB\nDuration                       : 1h 36mn\nOverall bit rate               : 1 505 Kbps\n\nVideo\nID                             : 0\nSource                         : Bad Neighbours 2014 720p WEB-DL Uncensored x264 AAC5.1-KiNGDOM\nFormat                         : xvid\nCodec ID                       : xvid\nDuration                       : 1h 36mn\nBit rate                       : 1 168 Kbps\nWidth                          : 640 pixels\nHeight                         : 360 pixels\nDisplay aspect ratio           : 16:9\nFrame rate                     : 23.976 fps\nBits/(Pixel*Frame)             : 0.211\nStream size                    : 808 MiB (78%)\n\nAudio\nID                             : 1\nFormat                         : MPEG Audio\nFormat version                 : Version 1\nFormat profile                 : Layer 3\nMode                           : Joint stereo\nMode extension                 : MS Stereo\nCodec ID                       : 55\nCodec ID/Hint                  : MP3\nDuration                       : 1h 36mn\nBit rate mode                  : Constant\nBit rate                       : 320 Kbps\nChannel(s)                     : 2 channels\nSampling rate                  : 48.0 KHz\nCompression mode               : Lossy\nStream size                    : 221 MiB (21%)\nAlignment                      : Aligned on interleaves\nInterleave, duration           : 24 ms (0.58 video frame)\n\n","torrent":{"xt":"urn:btih:2feea3f35a7c0879c5edfc1e80e0d3fe80dc1274","amp;dn":"Bad.Neighbours.2014.AVI.BRRip.DivX.NLsub.%7BTh3Sp3cialist%7D","amp;tr":["udp%3A%2F%2Ftracker.openbittorrent.com%3A80","udp%3A%2F%2Fopen.demonii.com%3A1337","udp%3A%2F%2Ftracker.coppersurfer.tk%3A6969","udp%3A%2F%2Fexodus.desync.com%3A6969"],"infoHash":"2feea3f35a7c0879c5edfc1e80e0d3fe80dc1274","infoHashBuffer":{"type":"Buffer","data":[47,238,163,243,90,124,8,121,197,237,252,30,128,224,211,254,128,220,18,116]},"announce":[],"urlList":[]}}